#!OML:ASF X:\für Bonn\!DataBase\2005_08_10_Bjorn_Final\c3d\bjorn.ASF
:FULLY-SPECIFIED
:DEGREES
270
root 0.208984 2.52525 8.91256 -2407 -12.255 179.743
lowerback 51.6311 3.89342 9.31298
upperback 27.2843 -6.88695 2.31279
thorax 10.6788 -9.71915 -1.13151
lowerneck 0.835937 8.77815 3.68137
upperneck 2.3126 11.8618 -9.89242
head 1.50107 5.8431 -3.65574
rclavicle -7.45443e-015 -1.41137e-014
rhumerus -418.714 -3.42852 278.093
rradius 55.8444
rwrist -50.1501
rhand -19.1138 -16.1226
rfingers 7.12502
rthumb 7.19529 -45.9803
lclavicle -7.45443e-015 -1.41137e-014
lhumerus -60.1526 -40.9574 101.254
lradius 55.4195
lwrist 54.8306
lhand -34.0378 22.1588
lfingers 7.12502
lthumb -7.21601 772.016
rfemur -260.258 -143.023 182.21
rtibia 119.02
rfoot 37.0328 17.1527
rtoes 15.5443
lfemur 100.9 172.436 160.861
ltibia 122.124
lfoot 24.8191 -5.65185
ltoes -9.01417
271
root 0.201547 2.50046 8.8905 -2406.92 -12.1945 179.861
lowerback 51.5183 3.88331 9.46953
upperback 27.4469 -6.96516 2.40811
thorax 10.9179 -9.78499 -1.12992
lowerneck 1.67053 8.90413 3.62737
upperneck 1.60994 11.992 -9.90571
head 1.1324 5.95069 -3.70489
rclavicle -3.28989e-014 2.5842e-014
rhumerus -419.124 -3.5771 278.139
rradius 56.8232
rwrist -50.2575
rhand -19.4527 -16.0354
rfingers 7.12502
rthumb 6.86813 -45.904
lclavicle -3.28989e-014 2.5842e-014
lhumerus -60.3356 -40.6934 101.028
lradius 56.2708
lwrist 54.491
lhand -34.2111 22.0885
lfingers 7.12502
lthumb -7.38331 771.94
rfemur -260.704 -142.692 182.454
rtibia 119.201
rfoot 37.1468 17.1652
rtoes 15.2977
lfemur 100.722 172.379 160.634
ltibia 121.779
lfoot 25.2667 -5.54371
ltoes -9.19909
272
root 0.194324 2.47807 8.86986 -2406.84 -12.1171 179.983
lowerback 51.4319 3.88711 9.61681
upperback 27.6006 -7.0358 2.52051
thorax 11.1471 -9.85416 -1.10567
lowerneck 2.59361 9.01408 3.54001
upperneck 0.881843 12.0958 -9.94053
head 0.739803 6.04639 -3.76764
rclavicle 1.08338e-014 1.09332e-014
rhumerus -419.473 -3.73545 278.192
rradius 57.7422
rwrist -50.3469
rhand -19.7932 -15.8722
rfingers 7.12502
rthumb 6.53942 -45.7513
lclavicle 1.08338e-014 1.09332e-014
lhumerus -60.4765 -40.4189 100.826
lradius 57.089
lwrist 54.2186
lhand -34.3716 22.0527
lfingers 7.12502
lthumb -7.5383 771.898
rfemur -261.118 -142.4 182.708
rtibia 119.377
rfoot 37.2276 17.1945
rtoes 14.9716
lfemur 100.48 172.259 160.481
ltibia 121.593
lfoot 25.5798 -5.50334
ltoes -9.63296
273
root 0.18659 2.45903 8.85092 -2406.75 -12.0615 180.104
lowerback 51.3251 3.88718 9.74348
upperback 27.7636 -7.12367 2.61044
thorax 11.3877 -9.93044 -1.09523
lowerneck 3.49737 9.13592 3.45804
upperneck 0.217836 12.2177 -9.97523
head 0.374407 6.14837 -3.83438
rclavicle -3.40916e-014 4.67144e-014
rhumerus -419.764 -3.87503 278.211
rradius 58.5999
rwrist -50.4024
rhand -20.1214 -15.7599
rfingers 7.12502
rthumb 6.22266 -45.6485
lclavicle -3.40916e-014 4.67144e-014
lhumerus -60.5619 -40.1421 100.597
lradius 57.843
lwrist 53.9886
lhand -34.5776 21.9774
lfingers 7.12502
lthumb -7.73704 771.816
rfemur -261.506 -142.109 182.921
rtibia 119.543
rfoot 37.285 17.235
rtoes 14.5547
lfemur 100.208 172.137 160.356
ltibia 121.498
lfoot 25.7936 -5.47135
ltoes -10.2786
274
root 0.178991 2.44166 8.83308 -2406.66 -12.0123 180.237
lowerback 51.2406 3.87642 9.85927
upperback 27.9 -7.21476 2.69867
thorax 11.5926 -10.0058 -1.07322
lowerneck 4.31772 9.26625 3.30964
upperneck -0.323853 12.3521 -9.97506
head 0.0573126 6.25024 -3.87426
rclavicle 6.95746e-015 -5.36719e-015
rhumerus -420.059 -3.99406 278.241
rradius 59.4245
rwrist -50.4035
rhand -20.4389 -15.6656
rfingers 7.12502
rthumb 5.91611 -45.563
lclavicle 6.95746e-015 -5.36719e-015
lhumerus -60.6731 -39.8359 100.406
lradius 58.5813
lwrist 53.728
lhand -34.7237 21.9658
lfingers 7.12502
lthumb -7.87808 771.799
rfemur -261.879 -141.852 183.133
rtibia 119.695
rfoot 37.3036 17.2785
rtoes 14.0629
lfemur 99.9236 172.026 160.268
ltibia 121.454
lfoot 25.9312 -5.40957
ltoes -10.8452
275
root 0.172228 2.42754 8.81606 -2406.58 -11.9613 180.363
lowerback 51.1923 3.87647 9.96777
upperback 28.0176 -7.28501 2.78411
thorax 11.7695 -10.0702 -1.04991
lowerneck 5.0453 9.39825 3.1267
upperneck -0.786381 12.4905 -9.9072
head -0.225129 6.34917 -3.88129
rclavicle 2.68359e-014 7.7526e-015
rhumerus -420.345 -4.18396 278.299
rradius 60.162
rwrist -50.3213
rhand -20.6871 -15.552
rfingers 7.12502
rthumb 5.67649 -45.456
lclavicle 2.68359e-014 7.7526e-015
lhumerus -60.7887 -39.5324 100.215
lradius 59.2844
lwrist 53.4683
lhand -34.9005 21.9487
lfingers 7.12502
lthumb -8.04871 771.775
rfemur -262.172 -141.662 183.299
rtibia 119.833
rfoot 37.3301 17.2865
rtoes 13.6483
lfemur 99.6933 171.885 160.207
ltibia 121.431
lfoot 26.0036 -5.41855
ltoes -11.3605
276
root 0.165046 2.41739 8.8014 -2406.5 -11.9206 180.494
lowerback 51.1539 3.86604 10.0674
upperback 28.1224 -7.36409 2.85995
thorax 11.928 -10.1368 -1.02675
lowerneck 5.69156 9.56216 2.89487
upperneck -1.18056 12.672 -9.77853
head -0.476175 6.46509 -3.85518
rclavicle -1.36167e-014 9.14409e-015
rhumerus -420.583 -4.43127 278.378
rradius 60.8294
rwrist -50.1844
rhand -20.9532 -15.4389
rfingers 7.12502
rthumb 5.41951 -45.3496
lclavicle -1.36167e-014 9.14409e-015
lhumerus -60.9001 -39.2237 100.052
lradius 59.9618
lwrist 53.2101
lhand -35.064 21.9938
lfingers 7.12502
lthumb -8.20654 771.814
rfemur -262.422 -141.504 183.424
rtibia 119.955
rfoot 37.3357 17.264
rtoes 13.1216
lfemur 99.4818 171.772 160.157
ltibia 121.416
lfoot 26.0582 -5.43641
ltoes -11.5632
